<?xml version="1.0" encoding="utf-8"?>
<!-- Generator: Adobe Illustrator 23.0.1, SVG Export Plug-In . SVG Version: 6.00 Build 0)  -->
<svg version="1.1" id="레이어_1" xmlns="http://www.w3.org/2000/svg" xmlns:xlink="http://www.w3.org/1999/xlink" x="0px"
	 y="0px" viewBox="0 0 150 64.45" style="enable-background:new 0 0 150 64.45;" xml:space="preserve">
<style type="text/css">
	.st0{fill:#FFFFFF;}
</style>
<g>
	<path class="st0" d="M23.64,17.93l-7.97,24.59h3.36l1.72-5.4H31.7l1.69,5.4h3.36l-7.97-24.59H23.64z M26.67,20.85l4.13,13.34h-9.12
		l4.26-13.34H26.67z"/>
	<path class="st0" d="M53.38,42.52h3.45l-5.25-10.83c0.6-0.26,1.13-0.59,1.59-0.98c0.58-0.49,1.06-1.04,1.42-1.65
		c0.35-0.59,0.62-1.23,0.79-1.88c0.17-0.65,0.25-1.3,0.25-1.92c0-0.78-0.13-1.61-0.39-2.45c-0.26-0.86-0.71-1.67-1.34-2.39
		c-0.63-0.72-1.46-1.32-2.46-1.79c-1.01-0.47-2.26-0.7-3.73-0.7h-9.64v24.59h3.04v-9.96h7.48L53.38,42.52z M51.18,28.67
		c-0.45,0.34-0.99,0.58-1.6,0.73c-0.64,0.16-1.33,0.23-2.04,0.23h-6.42v-8.78h7.21c0.57,0,1.12,0.08,1.65,0.24
		c0.5,0.15,0.96,0.41,1.35,0.75c0.39,0.34,0.7,0.78,0.93,1.32c0.23,0.55,0.35,1.23,0.35,2.04c0,0.86-0.13,1.58-0.39,2.14
		C51.97,27.9,51.62,28.34,51.18,28.67z"/>
	<polygon class="st0" points="55.86,20.85 63.04,20.85 63.04,42.52 66.14,42.52 66.14,20.85 73.35,20.85 73.35,17.93 55.86,17.93 	
		"/>
	<polygon class="st0" points="97.12,39.62 85.44,39.62 85.44,17.93 82.39,17.93 82.39,42.52 97.12,42.52 	"/>
	<path class="st0" d="M111.69,42.52h2.77V30.11c0-2.49-0.67-4.37-1.98-5.61c-1.3-1.22-3.29-1.87-5.89-1.93
		c-2.36-0.06-4.25,0.47-5.66,1.57c-1.42,1.11-2.28,2.65-2.55,4.59l-0.08,0.57h3.14l0.1-0.37c0.13-0.45,0.3-0.9,0.51-1.33
		c0.19-0.39,0.47-0.75,0.82-1.05c0.36-0.31,0.83-0.56,1.41-0.75c0.59-0.2,1.35-0.3,2.27-0.3c1.1,0,1.98,0.16,2.6,0.49
		c0.63,0.32,1.12,0.71,1.45,1.14c0.33,0.44,0.55,0.89,0.65,1.34c0.11,0.49,0.16,0.88,0.16,1.18v1.19h-5.95
		c-2.63,0-4.61,0.48-5.9,1.42c-1.34,0.98-2.01,2.52-2.01,4.56c0,1.06,0.17,1.98,0.49,2.75c0.33,0.78,0.81,1.43,1.41,1.94
		c0.6,0.5,1.31,0.87,2.13,1.11c0.79,0.23,1.67,0.34,2.6,0.34c1.7,0,3.24-0.21,4.59-0.64c1.04-0.32,1.97-0.81,2.79-1.45L111.69,42.52
		z M104.59,40.03c-0.9,0-1.63-0.11-2.15-0.31c-0.51-0.2-0.9-0.46-1.17-0.77c-0.27-0.31-0.45-0.64-0.53-1
		c-0.1-0.4-0.15-0.79-0.15-1.15c0-0.39,0.07-0.76,0.2-1.13c0.13-0.34,0.35-0.64,0.67-0.92c0.34-0.29,0.8-0.52,1.38-0.71
		c0.59-0.19,1.35-0.28,2.27-0.28h6.3v1.46c0,0.64-0.15,1.25-0.44,1.81c-0.3,0.57-0.73,1.09-1.31,1.53
		c-0.58,0.45-1.31,0.81-2.15,1.07C106.67,39.89,105.68,40.03,104.59,40.03z"/>
	<path class="st0" d="M132.34,40.61c0.71-0.75,1.24-1.68,1.56-2.74c0.31-1.04,0.47-2.2,0.47-3.47v-3.33c0-1.27-0.17-2.44-0.51-3.47
		c-0.34-1.05-0.88-1.96-1.59-2.7c-0.71-0.74-1.6-1.32-2.65-1.73c-1.04-0.4-2.25-0.6-3.61-0.6c-1.47,0-2.79,0.29-3.91,0.87
		c-0.7,0.36-1.32,0.79-1.87,1.29v-7.62h-3.04v25.41h2.63l0.26-1.78c0.51,0.51,1.1,0.96,1.78,1.33c1.04,0.58,2.32,0.88,3.81,0.88
		c1.53,0,2.86-0.2,3.94-0.6C130.7,41.95,131.62,41.36,132.34,40.61z M125.81,25.5c1.08,0,1.98,0.15,2.68,0.44
		c0.69,0.29,1.26,0.68,1.67,1.15c0.42,0.48,0.71,1.03,0.89,1.66c0.18,0.65,0.27,1.35,0.27,2.06v3.88c0,1.14-0.17,2.07-0.52,2.75
		c-0.34,0.68-0.78,1.21-1.3,1.58c-0.54,0.38-1.14,0.64-1.79,0.78c-1.38,0.3-2.63,0.33-3.92-0.13c-0.65-0.23-1.24-0.58-1.76-1.04
		c-0.52-0.46-0.96-1.05-1.3-1.74c-0.33-0.69-0.5-1.51-0.5-2.44v-3.69c0.02-0.67,0.17-1.33,0.45-1.95c0.28-0.63,0.67-1.2,1.16-1.69
		c0.48-0.49,1.06-0.88,1.73-1.18C124.24,25.64,124.99,25.5,125.81,25.5z"/>
	<rect x="23.56" y="49.2" class="st0" width="0.77" height="9.2"/>
	<path class="st0" d="M16.53,58.29h4.88v-8.97h-4.88V58.29z M17.3,50.05h3.34v7.52H17.3V50.05z"/>
	<polygon class="st0" points="33.1,53.91 36.13,53.91 36.13,49.32 32.35,49.32 32.35,50.05 35.36,50.05 35.36,53.19 32.33,53.19 
		32.33,58.29 36.45,58.29 36.45,57.57 33.1,57.57 	"/>
	<polygon class="st0" points="39.82,53.03 38.21,53.03 38.21,49.2 37.44,49.2 37.44,58.4 38.21,58.4 38.21,53.76 39.82,53.76 
		39.82,58.4 40.59,58.4 40.59,49.2 39.82,49.2 	"/>
	<polygon class="st0" points="47.77,50.05 49.74,50.05 47.92,58.29 48.7,58.29 50.53,50.05 50.87,50.05 52.69,58.29 53.48,58.29 
		51.65,50.05 53.51,50.05 53.51,49.32 47.77,49.32 	"/>
	<polygon class="st0" points="55.59,49.2 54.82,49.2 54.82,58.4 55.59,58.4 55.59,53.78 57.25,53.78 57.25,53.05 55.59,53.05 	"/>
	<polygon class="st0" points="68.4,52.56 71.6,52.56 71.6,51.83 65.22,51.83 65.22,49.94 71.58,49.94 71.58,49.21 64.45,49.21 
		64.45,52.56 67.63,52.56 67.63,53.59 63.58,53.59 63.58,54.32 72.48,54.32 72.48,53.59 68.4,53.59 	"/>
	<path class="st0" d="M71.36,55.63c-0.17-0.16-0.38-0.29-0.64-0.38c-0.26-0.09-0.58-0.14-0.94-0.14c-0.34-0.01-0.65-0.01-0.93-0.01
		c-0.28,0-0.56,0-0.83,0c-0.27,0-0.54,0-0.83,0c-0.28,0-0.59,0-0.93,0.01c-0.37,0.01-0.68,0.06-0.94,0.15
		c-0.26,0.09-0.47,0.22-0.64,0.37c-0.17,0.16-0.29,0.34-0.37,0.56s-0.12,0.44-0.12,0.69c0,0.49,0.17,0.9,0.52,1.23
		c0.34,0.33,0.85,0.51,1.53,0.53c0.34,0.01,0.65,0.01,0.94,0.02c0.29,0,0.57,0.01,0.84,0.01c0.27,0,0.55,0,0.84-0.01
		c0.28,0,0.59-0.01,0.93-0.02c0.68-0.02,1.2-0.2,1.54-0.53c0.35-0.33,0.52-0.74,0.52-1.23c0-0.25-0.04-0.48-0.12-0.69
		C71.65,55.98,71.52,55.79,71.36,55.63z M70.78,57.62c-0.2,0.18-0.55,0.28-1.07,0.3c-0.52,0.01-1.08,0.01-1.69,0.01
		s-1.17,0-1.69-0.01c-0.51-0.02-0.87-0.11-1.07-0.3s-0.3-0.43-0.3-0.73c0-0.15,0.02-0.29,0.06-0.42c0.04-0.12,0.11-0.23,0.21-0.32
		c0.1-0.09,0.24-0.17,0.42-0.22c0.18-0.05,0.4-0.08,0.68-0.08c0.52-0.01,1.08-0.01,1.68-0.01c0.6,0,1.16,0,1.68,0.01
		c0.27,0,0.5,0.03,0.68,0.08s0.32,0.13,0.42,0.22c0.1,0.1,0.17,0.21,0.21,0.33c0.04,0.13,0.06,0.26,0.06,0.42
		C71.08,57.2,70.98,57.44,70.78,57.62z"/>
	<polygon class="st0" points="86.79,49.2 86.02,49.2 86.02,58.4 86.79,58.4 86.79,53.78 88.45,53.78 88.45,53.05 86.79,53.05 	"/>
	<polygon class="st0" points="82.59,48.98 81.76,48.98 81.32,50.91 78.97,50.91 78.97,51.63 81.02,51.63 79.11,58.29 79.9,58.29 
		81.84,51.63 81.94,51.63 83.89,58.29 84.67,58.29 82.76,51.63 84.71,51.63 84.71,50.91 82.15,50.91 	"/>
	<path class="st0" d="M98.01,54.54c0.22-0.03,0.43-0.09,0.63-0.17s0.38-0.18,0.53-0.32s0.29-0.31,0.4-0.51h2.84v2.44h0.77V49.2
		h-0.77v1.02H99.9c-0.13-0.33-0.37-0.6-0.72-0.8c-0.35-0.2-0.81-0.3-1.41-0.3c-0.26,0-0.53,0.02-0.79,0.07
		c-0.26,0.04-0.5,0.13-0.73,0.25c-0.23,0.12-0.43,0.29-0.59,0.5c-0.17,0.21-0.3,0.49-0.39,0.83c-0.04,0.13-0.07,0.27-0.09,0.42
		c-0.03,0.15-0.05,0.3-0.07,0.45c-0.02,0.15-0.03,0.29-0.05,0.42c-0.02,0.14-0.03,0.26-0.03,0.36c-0.06,0.69,0.11,1.22,0.5,1.6
		c0.39,0.38,0.98,0.57,1.78,0.57C97.55,54.58,97.79,54.57,98.01,54.54z M99.96,52.01c0.04-0.29,0.07-0.6,0.08-0.91v-0.14h2.38v1.86
		h-2.61C99.87,52.57,99.92,52.3,99.96,52.01z M96.28,53.63c-0.14-0.09-0.25-0.22-0.34-0.39c-0.08-0.17-0.12-0.4-0.11-0.68
		c0-0.11,0.01-0.23,0.02-0.37c0.01-0.14,0.03-0.28,0.06-0.44s0.05-0.3,0.07-0.43c0.03-0.14,0.05-0.26,0.07-0.36
		c0.06-0.25,0.15-0.45,0.27-0.59c0.13-0.14,0.27-0.25,0.42-0.33s0.32-0.13,0.49-0.15c0.17-0.02,0.33-0.03,0.48-0.03
		c0.21,0,0.4,0.01,0.58,0.04c0.18,0.03,0.34,0.09,0.48,0.19c0.14,0.1,0.25,0.24,0.32,0.42c0.08,0.18,0.11,0.42,0.1,0.73
		c-0.01,0.12-0.02,0.26-0.03,0.42c-0.01,0.15-0.03,0.31-0.06,0.46c-0.03,0.15-0.05,0.3-0.08,0.44c-0.03,0.14-0.06,0.26-0.09,0.36
		c-0.07,0.21-0.16,0.38-0.28,0.51c-0.12,0.13-0.26,0.22-0.41,0.28c-0.15,0.06-0.31,0.1-0.47,0.12c-0.16,0.02-0.31,0.03-0.45,0.03
		c-0.2,0-0.39-0.01-0.58-0.04C96.59,53.78,96.42,53.72,96.28,53.63z"/>
	<polygon class="st0" points="96.57,55.43 95.8,55.43 95.8,58.65 103.42,58.65 103.42,57.92 96.57,57.92 	"/>
	<polygon class="st0" points="110.64,55.02 114.68,55.02 114.68,58.6 115.45,58.6 115.45,55.02 119.53,55.02 119.53,54.3 
		110.64,54.3 	"/>
	<polygon class="st0" points="118.16,53.56 118.71,49.25 111.32,49.25 111.32,49.97 117.81,49.97 117.35,53.56 	"/>
	<polygon class="st0" points="125.99,55.25 125.99,55.97 130.03,55.97 130.03,58.6 130.8,58.6 130.8,55.97 134.87,55.97 
		134.87,55.25 	"/>
	<path class="st0" d="M126.85,49.21v4.77h7.14v-4.77h-0.77v1.59h-5.6v-1.59H126.85z M133.22,51.52v1.73h-5.6v-1.73H133.22z"/>
</g>
</svg>
